<svg id="Layer_1" enable-background="new 0 0 512 512" height="512" viewBox="0 0 512 512" width="512" xmlns="http://www.w3.org/2000/svg"><g><path d="m160 312-80-80h-80v80" fill="#c6fff6"/><path d="m80 232s-13.92 0-24 0l80 80h24z" fill="#b6e6fa"/><path d="m352 312 80-80h80v80" fill="#c6fff6"/><path d="m500 232h12v80h-12z" fill="#b6e6fa"/><path d="m288 312h224v80h-224z" fill="#d7fc7e"/><path d="m500 312h12v80h-12z" fill="#55e072"/><path d="m384 328c-35.346 0-64 28.654-64 64h128c0-35.346-28.654-64-64-64z" fill="#55e072"/><path d="m288 312h40v32h-40z" fill="#ffe477" transform="matrix(-1 0 0 -1 616 656)"/><path d="m310 312h18v32h-18z" fill="#ffb655"/><path d="m0 312h224v80h-224z" fill="#b6e6fa"/><path d="m206 312h18v64h-18z" fill="#94b7f7"/><path d="m128 328c-35.346 0-64 28.654-64 64h128c0-35.346-28.654-64-64-64z" fill="#94b7f7"/><path d="m184 312h40v32h-40z" fill="#ffe477"/><path d="m206 312h18v32h-18z" fill="#ffb655"/><path d="m176 376h64v32h-64z" fill="#c6fff6"/><path d="m176 408h13.984c1.316-5.114 2.016-10.475 2.016-16s-.7-10.886-2.016-16h-13.984z" fill="#b6e6fa"/><path d="m272 376h64v32h-64z" fill="#c6fff6" transform="matrix(-1 0 0 -1 608 784)"/><path d="m322.016 408h13.984v-32h-13.984c-1.316 5.114-2.016 10.475-2.016 16s.7 10.886 2.016 16z" fill="#b6e6fa"/><circle cx="128" cy="392" fill="#787680" r="48"/><path d="m128 344c-3.078 0-6.083.301-9 .855 22.206 4.214 39 23.713 39 47.145s-16.794 42.931-39 47.145c2.917.554 5.922.855 9 .855 26.51 0 48-21.49 48-48s-21.49-48-48-48z" fill="#57565c"/><circle cx="128" cy="392" fill="#fff" r="16"/><circle cx="384" cy="392" fill="#787680" r="48"/><path d="m384 344c-3.078 0-6.083.301-9 .855 22.206 4.214 39 23.713 39 47.145s-16.794 42.931-39 47.145c2.917.554 5.922.855 9 .855 26.51 0 48-21.49 48-48s-21.49-48-48-48z" fill="#57565c"/><circle cx="384" cy="392" fill="#fff" r="16"/><g><path d="m40 336.5h16v15h-16z" fill="#fff"/></g><g><path d="m456 336.5h16v15h-16z" fill="#fff"/></g><path d="m304 136 48-48v48l48-16-24 64 56-16-48 64h-256l-48-64 56 16-24-64 48 16v-48l48 48" fill="#ff7956"/><path d="m368 216-54.34-89.66-9.66 9.66h-96l-9.66-9.66-54.34 89.66 8 16h208z" fill="#ff3f62"/><path d="m264.727 72h-17.454l-87.273 144 8 16h176l8-16z" fill="#ffe477"/><path d="m264.727 72h-17.454l-.273.45 87 143.55-8 16h18l8-16z" fill="#ffb655"/><g><path d="m231.5 304.5h-68.393l-80-80h-83.107v15h24.5v65h-24.5v15h176.5v32h40v17h-38.237c-8.865-18.886-28.057-32-50.263-32-30.603 0-55.5 24.897-55.5 55.5s24.897 55.5 55.5 55.5c22.206 0 41.398-13.114 50.263-32h69.237v-47h-16zm-192-65h37.394l65 65h-102.394zm152 97v-17h25v17zm-63.5 96c-22.332 0-40.5-18.168-40.5-40.5s18.168-40.5 40.5-40.5 40.5 18.168 40.5 40.5-18.168 40.5-40.5 40.5zm104.5-32h-49.651c.428-2.772.651-5.61.651-8.5s-.223-5.728-.651-8.5h49.651z"/><path d="m0 384.5h56v15h-56z"/><path d="m512 239.5v-15h-83.106l-80.001 80h-68.393v64h-16v47h47.5v-15h-32.5v-17h49.651c-.428 2.772-.651 5.61-.651 8.5 0 30.603 24.897 55.5 55.5 55.5 28.058 0 51.305-20.934 54.979-48h73.021v-15h-73.021c-3.675-27.066-26.921-48-54.979-48-22.206 0-41.398 13.114-50.263 32h-38.237v-17h40v-32h104.5v-15h-69.893l64.999-65h37.394v65h-16.5v15h56v-15h-24.5v-65zm-128 112c22.332 0 40.5 18.168 40.5 40.5s-18.168 40.5-40.5 40.5-40.5-18.168-40.5-40.5 18.168-40.5 40.5-40.5zm-63.5-15h-25v-17h25z"/><path d="m128 368.5c-12.958 0-23.5 10.542-23.5 23.5s10.542 23.5 23.5 23.5 23.5-10.542 23.5-23.5-10.542-23.5-23.5-23.5zm0 32c-4.687 0-8.5-3.813-8.5-8.5s3.813-8.5 8.5-8.5 8.5 3.813 8.5 8.5-3.813 8.5-8.5 8.5z"/><path d="m384 415.5c12.958 0 23.5-10.542 23.5-23.5s-10.542-23.5-23.5-23.5-23.5 10.542-23.5 23.5 10.542 23.5 23.5 23.5zm0-32c4.687 0 8.5 3.813 8.5 8.5s-3.813 8.5-8.5 8.5-8.5-3.813-8.5-8.5 3.813-8.5 8.5-8.5z"/><path d="m248.5 112h15v64h-15z"/><path d="m248.5 192h15v16h-15z"/><path d="m163.365 239.5h185.27l11.925-23.848-91.608-151.152h-25.904l-91.607 151.152zm88.133-160h9.005l82.938 136.848-4.075 8.152h-166.73l-4.076-8.152z"/><path d="m248 256.5h16v15h-16z"/><path d="m280 256.5h16v15h-16z"/><path d="m216 256.5h16v15h-16z"/><path d="m134 227.5-34.623-46.163 48.87 13.963-23.705-63.213 42.958 14.318v-40.299l19.197 19.198 10.606-10.608-44.803-44.802v55.701l-53.042-17.682 24.295 64.787-63.13-18.037 61.377 81.837z"/><path d="m344.5 106.106v40.299l42.958-14.318-23.705 63.213 48.87-13.963-34.623 46.163 12 9 61.377-81.837-63.13 18.037 24.295-64.787-53.042 17.682v-55.701l-44.804 44.802 10.608 10.608z"/><path d="m424 120.5h16v15h-16z"/><path d="m184 72.5h16v15h-16z"/><path d="m72 120.5h16v15h-16z"/></g><g><path d="m344 160.5h16v15h-16z" fill="#fff"/></g><g><path d="m144 152.5h16v15h-16z" fill="#fff"/></g></g></svg>