<svg id="Capa_1" enable-background="new 0 0 512 512" height="512" viewBox="0 0 512 512" width="512" xmlns="http://www.w3.org/2000/svg"><g><g><path d="m256 22c-135.31 0-245 109.69-245 245 0 8.76.469 17.41 1.366 25.932l1.783 1.603c7.045 2.119 14.328 3.2 21.686 3.2 15.404 0 30.226-4.623 42.864-13.368.348-.241.752-.368 1.169-.368s.821.127 1.169.368c12.639 8.745 27.461 13.368 42.865 13.368s30.226-4.623 42.864-13.368c.348-.241.752-.368 1.169-.368s.821.127 1.168.368c12.639 8.745 27.461 13.368 42.865 13.368s30.226-4.623 42.864-13.368c.348-.241.752-.368 1.169-.368s.821.127 1.169.368c12.638 8.745 27.459 13.368 42.864 13.368 15.404 0 30.226-4.623 42.864-13.368.348-.241.752-.368 1.169-.368s.821.127 1.168.368c12.639 8.745 27.46 13.368 42.864 13.368s30.226-4.623 42.864-13.368c.348-.241.752-.368 1.169-.368s.821.127 1.168.368c12.639 8.745 27.461 13.368 42.865 13.368 7.357 0 14.64-1.082 21.685-3.2l1.783-1.603c.898-8.522 1.367-17.172 1.367-25.932 0-135.31-109.69-245-245-245z" fill="#ffe5de"/></g><g fill="#fff3de"><path d="m182 102.101c0-6.131-4.97-11.101-11.101-11.101h-24.865c-6.131 0-11.101 4.97-11.101 11.101s4.97 11.101 11.101 11.101h24.865c6.131-.001 11.101-4.971 11.101-11.101z"/><path d="m396 89.899c0-6.131-4.97-11.1-11.101-11.1h-18.931c-6.131 0-11.101 4.97-11.101 11.1 0 6.131 4.97 11.101 11.101 11.101h18.931c6.131 0 11.101-4.97 11.101-11.101z"/><path d="m110 138.899c0-6.131-4.97-11.1-11.101-11.1h-12.865c-6.131 0-11.101 4.97-11.101 11.1 0 6.131 4.97 11.101 11.101 11.101h12.865c6.131 0 11.101-4.97 11.101-11.101z"/></g><path d="m388.1 297.735c15.404 0 30.226-4.623 42.864-13.368.348-.241.752-.368 1.169-.368s.821.127 1.168.368c12.639 8.745 27.461 13.368 42.865 13.368.028 0 .056-.001.083-.002v-178.733c0-2.761-2.239-5-5-5h-113c-2.761 0-5 2.239-5 5v170.2c10.713 5.6 22.595 8.535 34.851 8.535z" fill="#f99675"/><g><path d="m425 206c0-1.017.766-1.85 1.75-1.975v-2.025c0-2.209-1.791-4-4-4h-49c-2.209 0-4 1.791-4 4v48c0 2.209 1.791 4 4 4h49c.835 0 1.609-.257 2.25-.694z" fill="#feccbc"/><path d="m383 250v-48c0-2.209 1.791-4 4-4h-13.25c-2.209 0-4 1.791-4 4v48c0 2.209 1.791 4 4 4h13.25c-2.209 0-4-1.791-4-4z" fill="#fbac91"/><path d="m455.75 198h-16c-2.209 0-4 1.791-4 4v2h10.25c1.103 0 2 .897 2 2v16h7.75c2.209 0 4-1.791 4-4v-16c0-2.209-1.791-4-4-4z" fill="#feccbc"/><g><path d="m446 204c.366 0 .705.106 1 .278v-2.278c0-2.209 1.791-4 4-4h-11.25c-2.209 0-4 1.791-4 4v2z" fill="#fbac91"/></g></g><path d="m455.75 230h-7.75v24h7.75c2.209 0 4-1.791 4-4v-16c0-2.209-1.791-4-4-4z" fill="#feccbc"/><g><path d="m389.75 286h-16c-2.209 0-4-1.791-4-4v-16c0-2.209 1.791-4 4-4h16c2.209 0 4 1.791 4 4v16c0 2.209-1.791 4-4 4z" fill="#fff"/><path d="m381 282v-16c0-2.209 1.791-4 4-4h-11.25c-2.209 0-4 1.791-4 4v16c0 2.209 1.791 4 4 4h11.25c-2.209 0-4-1.791-4-4z" fill="#f2fbff"/><path d="m425 262.694c-.641-.437-1.415-.694-2.25-.694h-16c-2.209 0-4 1.791-4 4v16c0 2.209 1.791 4 4 4h16c.835 0 1.609-.257 2.25-.694z" fill="#feccbc"/><path d="m414 282v-16c0-2.209 1.791-4 4-4h-11.25c-2.209 0-4 1.791-4 4v16c0 2.209 1.791 4 4 4h11.25c-2.209 0-4-1.791-4-4z" fill="#fbac91"/><path d="m455.75 262h-7.75v24h7.75c2.209 0 4-1.791 4-4v-16c0-2.209-1.791-4-4-4z" fill="#feccbc"/></g><g><path d="m381 218v3.267c0 5.928 4.805 10.733 10.733 10.733h9.534c5.928 0 10.733-4.805 10.733-10.733v-3.267z" fill="#fff"/><path d="m393 221.267v-3.267h-12v3.267c0 5.928 4.805 10.733 10.733 10.733h9.534c.418 0 .828-.03 1.233-.076-5.346-.612-9.5-5.147-9.5-10.657z" fill="#f2fbff"/><path d="m425 208h-47c-1.657 0-3 1.343-3 3v5c0 1.657 1.343 3 3 3h47z" fill="#678d98"/><path d="m430.964 284.368c.348-.241.752-.368 1.169-.368s.821.127 1.168.368c4.931 3.412 10.198 6.187 15.698 8.314v-86.682c0-1.657-1.343-3-3-3h-19c-1.657 0-3 1.343-3 3v82.644c2.385-1.294 4.711-2.717 6.965-4.276z" fill="#678d98"/><g><path d="m435 206c0-1.657 1.343-3 3-3h-11c-1.657 0-3 1.343-3 3v82.644c2.384-1.295 4.71-2.717 6.964-4.276.348-.241.752-.368 1.169-.368s.821.127 1.168.368c.561.388 1.128.766 1.698 1.138v-79.506z" fill="#537983"/></g></g><g><path d="m239.627 56h16v16h-16z" fill="#8ebac5"/><path d="m239.627 56h8.373v16h-8.373z" fill="#7ca1b1"/><g><path d="m306.627 56h16v16h-16z" fill="#8ebac5"/></g><path d="m306.627 56h8.373v16h-8.373z" fill="#7ca1b1"/></g><g><g><path d="m97.183 194c.123.984.194 1.983.194 3 0 13.233-10.767 24-24 24s-24-10.767-24-24c0-1.017.071-2.016.194-3h-13.444c-2.761 0-5 2.239-5 5v98.577c1.565.098 3.134.159 4.707.159 15.404 0 30.226-4.623 42.864-13.368.348-.241.752-.368 1.169-.368s.821.127 1.169.368c10.635 7.359 22.819 11.785 35.591 13.008v-102.376l-1-1z" fill="#678d98"/><g><path d="m48 199c0-1.36.547-2.589 1.427-3.49.033-.507.081-1.011.144-1.51h-13.444c-2.761 0-5 2.239-5 5v98.577c1.565.098 3.134.159 4.707.159 4.108 0 8.172-.339 12.166-.987z" fill="#537983"/></g><g><path d="m103.309 294.878v-62.069c0-1.657-1.343-3-3-3h-7.682c-1.657 0-3 1.343-3 3v56.686c4.386 2.245 8.964 4.046 13.682 5.383z" fill="#8ebac5"/><path d="m95 232.809c0-1.657 1.343-3 3-3h-5.373c-1.657 0-3 1.343-3 3v56.686c1.759.9 3.556 1.709 5.373 2.465z" fill="#7ca1b1"/><path d="m78.698 284.368c.348-.241.752-.368 1.169-.368s.821.127 1.169.368c.018.013.037.024.055.037v-51.596c0-1.657-1.343-3-3-3h-7.682c-1.657 0-3 1.343-3 3v58c3.914-1.81 7.692-3.953 11.289-6.441z" fill="#8ebac5"/><path d="m73.318 232.809c0-1.657 1.343-3 3-3h-5.909c-1.657 0-3 1.343-3 3v58c2.008-.928 3.979-1.948 5.909-3.053z" fill="#7ca1b1"/><path d="m58.873 294.141v-61.333c0-1.657-1.343-3-3-3h-7.682c-1.657 0-3 1.343-3 3v64.341c4.664-.576 9.239-1.583 13.682-3.008z" fill="#8ebac5"/><path d="m51 232.809c0-1.657 1.343-3 3-3h-5.809c-1.657 0-3 1.343-3 3v64.341c1.954-.242 3.889-.577 5.809-.968z" fill="#7ca1b1"/></g><circle cx="73.377" cy="197" fill="#596c76" r="25"/><path d="m65 197c0-10.892 6.968-20.153 16.689-23.579-2.601-.917-5.397-1.421-8.311-1.421-13.807 0-25 11.193-25 25s11.193 25 25 25c2.915 0 5.711-.504 8.311-1.421-9.721-3.426-16.689-12.687-16.689-23.579z" fill="#465a61"/></g><path d="m219.627 159h-17.845v26c0 1.103-.897 2-2 2h-64.31c-1.103 0-2-.897-2-2v-26h-12.845c-2.761 0-5 2.239-5 5v133.281c2.733.298 5.493.454 8.273.454 15.404 0 30.226-4.623 42.864-13.368.348-.241.752-.368 1.169-.368s.821.127 1.168.368c12.639 8.745 27.461 13.368 42.865 13.368 2.911 0 5.801-.166 8.66-.493v-137.242z" fill="#fff"/><g><path d="m141 187h-5.528c-1.103 0-2-.897-2-2v-26h-12.845c-2.761 0-5 2.239-5 5v133.281c2.733.298 5.493.454 8.273.454 5.812 0 11.54-.66 17.1-1.949z" fill="#f2fbff"/></g><path d="m199.782 188h-64.31c-1.657 0-3-1.343-3-3v-46c0-1.657 1.343-3 3-3h64.31c1.657 0 3 1.343 3 3v46c0 1.657-1.343 3-3 3z" fill="#fe646f"/><path d="m149 185v-46c0-1.657 1.343-3 3-3h-16.528c-1.657 0-3 1.343-3 3v46c0 1.657 1.343 3 3 3h16.528c-1.657 0-3-1.343-3-3z" fill="#fd4755"/><path d="m199.782 201h-64.31c-1.657 0-3 1.343-3 3v14c0 1.657 1.343 3 3 3h64.31c1.657 0 3-1.343 3-3v-14c0-1.657-1.343-3-3-3z" fill="#c8effe"/><path d="m149 218v-14c0-1.657 1.343-3 3-3h-16.528c-1.657 0-3 1.343-3 3v14c0 1.657 1.343 3 3 3h16.528c-1.657 0-3-1.343-3-3z" fill="#99e6fc"/><path d="m199.782 233h-64.31c-1.657 0-3 1.343-3 3v14c0 1.657 1.343 3 3 3h64.31c1.657 0 3-1.343 3-3v-14c0-1.657-1.343-3-3-3z" fill="#c8effe"/><path d="m149 250v-14c0-1.657 1.343-3 3-3h-16.528c-1.657 0-3 1.343-3 3v14c0 1.657 1.343 3 3 3h16.528c-1.657 0-3-1.343-3-3z" fill="#99e6fc"/><path d="m135.472 285h30.34c.317-.212.638-.415.952-.632.348-.241.752-.368 1.169-.368s.821.127 1.168.368c.314.217.635.42.952.632h29.728c1.657 0 3-1.343 3-3v-14c0-1.657-1.343-3-3-3h-64.31c-1.657 0-3 1.343-3 3v14c.001 1.657 1.344 3 3.001 3z" fill="#c8effe"/><g><path d="m149 282v-14c0-1.657 1.343-3 3-3h-16.528c-1.657 0-3 1.343-3 3v14c0 1.657 1.343 3 3 3h16.528c-1.657 0-3-1.343-3-3z" fill="#99e6fc"/></g></g><g><path d="m219.627 89v208.339c12.632-1.275 24.677-5.687 35.204-12.971.348-.241.752-.368 1.169-.368s.821.127 1.169.368c12.638 8.745 27.459 13.368 42.864 13.368 15.295 0 30.014-4.562 42.594-13.188v-195.548z" fill="#678d98"/><g><path d="m244 89h-24.373v208.339c8.484-.856 16.701-3.134 24.373-6.74z" fill="#537983"/></g><path d="m254.831 284.368c.348-.241.752-.368 1.169-.368s.821.127 1.169.368c12.638 8.745 27.459 13.368 42.864 13.368 5.072 0 10.078-.511 14.967-1.496v-20.24c0-2.761-2.239-5-5-5h-57.746c-2.761 0-5 2.239-5 5v12.976c2.599-1.381 5.13-2.915 7.577-4.608z" fill="#596c76"/><g><path d="m264.254 276c0-2.761 2.239-5 5-5h-17c-2.761 0-5 2.239-5 5v12.976c2.599-1.38 5.13-2.915 7.577-4.608.348-.241.752-.368 1.169-.368s.821.127 1.169.368c2.292 1.586 4.658 3.032 7.085 4.344z" fill="#465a61"/></g><g><g><path d="m258.127 135h-19c-1.657 0-3-1.343-3-3v-19c0-1.657 1.343-3 3-3h19c1.657 0 3 1.343 3 3v19c0 1.657-1.343 3-3 3z" fill="#c8effe"/><path d="m247.127 132v-19c0-1.657 1.343-3 3-3h-11c-1.657 0-3 1.343-3 3v19c0 1.657 1.343 3 3 3h11c-1.657 0-3-1.343-3-3z" fill="#99e6fc"/><path d="m290.627 135h-19c-1.657 0-3-1.343-3-3v-19c0-1.657 1.343-3 3-3h19c1.657 0 3 1.343 3 3v19c0 1.657-1.343 3-3 3z" fill="#c8effe"/><path d="m323.127 135h-19c-1.657 0-3-1.343-3-3v-19c0-1.657 1.343-3 3-3h19c1.657 0 3 1.343 3 3v19c0 1.657-1.343 3-3 3z" fill="#fff"/></g><path d="m279.627 132v-19c0-1.657 1.343-3 3-3h-11c-1.657 0-3 1.343-3 3v19c0 1.657 1.343 3 3 3h11c-1.657 0-3-1.343-3-3z" fill="#99e6fc"/><path d="m312.127 132v-19c0-1.657 1.343-3 3-3h-11c-1.657 0-3 1.343-3 3v19c0 1.657 1.343 3 3 3h11c-1.657 0-3-1.343-3-3z" fill="#f2fbff"/></g><g><g><path d="m258.127 175h-19c-1.657 0-3-1.343-3-3v-19c0-1.657 1.343-3 3-3h19c1.657 0 3 1.343 3 3v19c0 1.657-1.343 3-3 3z" fill="#c8effe"/><path d="m247.127 172v-19c0-1.657 1.343-3 3-3h-11c-1.657 0-3 1.343-3 3v19c0 1.657 1.343 3 3 3h11c-1.657 0-3-1.343-3-3z" fill="#99e6fc"/><g fill="#c8effe"><path d="m290.627 175h-19c-1.657 0-3-1.343-3-3v-19c0-1.657 1.343-3 3-3h19c1.657 0 3 1.343 3 3v19c0 1.657-1.343 3-3 3z"/><path d="m323.127 175h-19c-1.657 0-3-1.343-3-3v-19c0-1.657 1.343-3 3-3h19c1.657 0 3 1.343 3 3v19c0 1.657-1.343 3-3 3z"/></g></g><g fill="#99e6fc"><path d="m279.627 172v-19c0-1.657 1.343-3 3-3h-11c-1.657 0-3 1.343-3 3v19c0 1.657 1.343 3 3 3h11c-1.657 0-3-1.343-3-3z"/><path d="m312.127 172v-19c0-1.657 1.343-3 3-3h-11c-1.657 0-3 1.343-3 3v19c0 1.657 1.343 3 3 3h11c-1.657 0-3-1.343-3-3z"/></g></g><g><g><path d="m258.127 215h-19c-1.657 0-3-1.343-3-3v-19c0-1.657 1.343-3 3-3h19c1.657 0 3 1.343 3 3v19c0 1.657-1.343 3-3 3z" fill="#fff"/><path d="m247.127 212v-19c0-1.657 1.343-3 3-3h-11c-1.657 0-3 1.343-3 3v19c0 1.657 1.343 3 3 3h11c-1.657 0-3-1.343-3-3z" fill="#f2fbff"/><g fill="#c8effe"><path d="m290.627 215h-19c-1.657 0-3-1.343-3-3v-19c0-1.657 1.343-3 3-3h19c1.657 0 3 1.343 3 3v19c0 1.657-1.343 3-3 3z"/><path d="m323.127 215h-19c-1.657 0-3-1.343-3-3v-19c0-1.657 1.343-3 3-3h19c1.657 0 3 1.343 3 3v19c0 1.657-1.343 3-3 3z"/></g></g><g fill="#99e6fc"><path d="m279.627 212v-19c0-1.657 1.343-3 3-3h-11c-1.657 0-3 1.343-3 3v19c0 1.657 1.343 3 3 3h11c-1.657 0-3-1.343-3-3z"/><path d="m312.127 212v-19c0-1.657 1.343-3 3-3h-11c-1.657 0-3 1.343-3 3v19c0 1.657 1.343 3 3 3h11c-1.657 0-3-1.343-3-3z"/></g></g><g><g><path d="m258.127 255h-19c-1.657 0-3-1.343-3-3v-19c0-1.657 1.343-3 3-3h19c1.657 0 3 1.343 3 3v19c0 1.657-1.343 3-3 3z" fill="#c8effe"/><path d="m247.127 252v-19c0-1.657 1.343-3 3-3h-11c-1.657 0-3 1.343-3 3v19c0 1.657 1.343 3 3 3h11c-1.657 0-3-1.343-3-3z" fill="#99e6fc"/><path d="m290.627 255h-19c-1.657 0-3-1.343-3-3v-19c0-1.657 1.343-3 3-3h19c1.657 0 3 1.343 3 3v19c0 1.657-1.343 3-3 3z" fill="#c8effe"/><path d="m323.127 255h-19c-1.657 0-3-1.343-3-3v-19c0-1.657 1.343-3 3-3h19c1.657 0 3 1.343 3 3v19c0 1.657-1.343 3-3 3z" fill="#fff"/></g><path d="m279.627 252v-19c0-1.657 1.343-3 3-3h-11c-1.657 0-3 1.343-3 3v19c0 1.657 1.343 3 3 3h11c-1.657 0-3-1.343-3-3z" fill="#99e6fc"/><path d="m312.127 252v-19c0-1.657 1.343-3 3-3h-11c-1.657 0-3 1.343-3 3v19c0 1.657 1.343 3 3 3h11c-1.657 0-3-1.343-3-3z" fill="#f2fbff"/></g></g><path d="m334.627 57h-107c-1.657 0-3-1.343-3-3v-51c0-1.657 1.343-3 3-3h107c1.657 0 3 1.343 3 3v51c0 1.657-1.343 3-3 3z" fill="#fe9901"/><path d="m241 54v-51c0-1.657 1.343-3 3-3h-16.373c-1.657 0-3 1.343-3 3v51c0 1.657 1.343 3 3 3h16.373c-1.657 0-3-1.343-3-3z" fill="#fb8801"/><path d="m345 90h-127.746c-1.657 0-3-1.343-3-3v-13c0-1.657 1.343-3 3-3h127.746c1.657 0 3 1.343 3 3v13c0 1.657-1.343 3-3 3z" fill="#596c76"/><path d="m243 82c-1.657 0-3-1.343-3-3v-8h-22.746c-1.657 0-3 1.343-3 3v13c0 1.657 1.343 3 3 3h127.746c1.657 0 3-1.343 3-3v-5z" fill="#465a61"/><g><path d="m311.127 34.5h-60c-4.142 0-7.5-3.358-7.5-7.5s3.358-7.5 7.5-7.5h60c4.142 0 7.5 3.358 7.5 7.5s-3.358 7.5-7.5 7.5z" fill="#fee903"/></g><path d="m260 27c0-4.142 3.358-7.5 7.5-7.5h-16.373c-4.142 0-7.5 3.358-7.5 7.5s3.358 7.5 7.5 7.5h16.373c-4.142 0-7.5-3.358-7.5-7.5z" fill="#f4d902"/><g><path d="m389.75 158h-16c-2.209 0-4-1.791-4-4v-16c0-2.209 1.791-4 4-4h16c2.209 0 4 1.791 4 4v16c0 2.209-1.791 4-4 4z" fill="#feccbc"/><path d="m381 154v-16c0-2.209 1.791-4 4-4h-11.25c-2.209 0-4 1.791-4 4v16c0 2.209 1.791 4 4 4h11.25c-2.209 0-4-1.791-4-4z" fill="#fbac91"/><path d="m422.75 158h-16c-2.209 0-4-1.791-4-4v-16c0-2.209 1.791-4 4-4h16c2.209 0 4 1.791 4 4v16c0 2.209-1.791 4-4 4z" fill="#feccbc"/><path d="m414 154v-16c0-2.209 1.791-4 4-4h-11.25c-2.209 0-4 1.791-4 4v16c0 2.209 1.791 4 4 4h11.25c-2.209 0-4-1.791-4-4z" fill="#fbac91"/><path d="m455.75 158h-16c-2.209 0-4-1.791-4-4v-16c0-2.209 1.791-4 4-4h16c2.209 0 4 1.791 4 4v16c0 2.209-1.791 4-4 4z" fill="#fff"/><path d="m447 154v-16c0-2.209 1.791-4 4-4h-11.25c-2.209 0-4 1.791-4 4v16c0 2.209 1.791 4 4 4h11.25c-2.209 0-4-1.791-4-4z" fill="#f2fbff"/></g><g><path d="m389.75 190h-16c-2.209 0-4-1.791-4-4v-16c0-2.209 1.791-4 4-4h16c2.209 0 4 1.791 4 4v16c0 2.209-1.791 4-4 4z" fill="#feccbc"/><path d="m381 186v-16c0-2.209 1.791-4 4-4h-11.25c-2.209 0-4 1.791-4 4v16c0 2.209 1.791 4 4 4h11.25c-2.209 0-4-1.791-4-4z" fill="#fbac91"/><path d="m422.75 190h-16c-2.209 0-4-1.791-4-4v-16c0-2.209 1.791-4 4-4h16c2.209 0 4 1.791 4 4v16c0 2.209-1.791 4-4 4z" fill="#fff"/><path d="m414 186v-16c0-2.209 1.791-4 4-4h-11.25c-2.209 0-4 1.791-4 4v16c0 2.209 1.791 4 4 4h11.25c-2.209 0-4-1.791-4-4z" fill="#f2fbff"/><path d="m455.75 190h-16c-2.209 0-4-1.791-4-4v-16c0-2.209 1.791-4 4-4h16c2.209 0 4 1.791 4 4v16c0 2.209-1.791 4-4 4z" fill="#feccbc"/><path d="m447 186v-16c0-2.209 1.791-4 4-4h-11.25c-2.209 0-4 1.791-4 4v16c0 2.209 1.791 4 4 4h11.25c-2.209 0-4-1.791-4-4z" fill="#fbac91"/></g><g><g><path d="m499.634 292.932c-7.38 2.454-15.264 3.804-23.468 3.804-15.714 0-30.283-4.878-42.295-13.19-1.051-.727-2.425-.727-3.476 0-12.012 8.312-26.582 13.19-42.295 13.19-15.714 0-30.283-4.878-42.295-13.19-1.051-.727-2.425-.727-3.476 0-12.012 8.312-26.582 13.19-42.295 13.19-15.714 0-30.283-4.878-42.295-13.19-1.051-.727-2.425-.727-3.476 0-12.012 8.312-26.582 13.19-42.295 13.19s-30.283-4.878-42.295-13.19c-1.051-.727-2.425-.727-3.476 0-12.012 8.312-26.582 13.19-42.295 13.19-15.714 0-30.283-4.878-42.295-13.19-1.051-.727-2.425-.727-3.476 0-12.012 8.312-26.582 13.19-42.295 13.19-8.204 0-16.088-1.349-23.468-3.804 1.8 17.109 5.367 33.691 10.504 49.566-.002-.009-.004-.018-.005-.026l2.203 1.753c6.77 2.058 13.796 3.111 20.933 3.111 14.667 0 28.785-4.393 40.829-12.702.348-.24.753-.367 1.171-.367s.823.127 1.171.367c12.044 8.31 26.163 12.702 40.829 12.702s28.785-4.393 40.829-12.702c.348-.24.753-.367 1.171-.367s.823.127 1.171.367c12.044 8.31 26.163 12.702 40.829 12.702s28.785-4.393 40.829-12.702c.348-.24.753-.367 1.171-.367s.823.127 1.171.367c12.044 8.31 26.163 12.702 40.829 12.702s28.785-4.393 40.829-12.702c.348-.24.753-.367 1.171-.367s.823.127 1.171.367c12.044 8.31 26.163 12.702 40.829 12.702s28.785-4.393 40.829-12.702c.348-.24.753-.367 1.171-.367s.823.127 1.171.367c12.044 8.31 26.163 12.702 40.829 12.702 7.137 0 14.165-1.054 20.935-3.113l2.201-1.752c0 .005-.001.01-.002.014 5.132-15.871 8.698-32.449 10.497-49.553z" fill="#01c0fa"/></g><path d="m22.864 342.471c31.824 98.376 124.163 169.529 233.136 169.529s201.312-71.153 233.136-169.529c-7.252 2.501-15.034 3.865-23.136 3.865-14.953 0-28.819-4.631-40.261-12.525-1.052-.726-2.426-.726-3.478 0-11.442 7.894-25.308 12.525-40.261 12.525s-28.819-4.631-40.261-12.525c-1.052-.726-2.426-.726-3.478 0-11.442 7.894-25.308 12.525-40.261 12.525s-28.819-4.631-40.261-12.525c-1.052-.726-2.426-.726-3.478 0-11.442 7.894-25.308 12.525-40.261 12.525s-28.819-4.631-40.261-12.525c-1.052-.726-2.426-.726-3.478 0-11.442 7.894-25.308 12.525-40.261 12.525s-28.819-4.631-40.261-12.525c-1.052-.726-2.426-.726-3.478 0-11.442 7.894-25.308 12.525-40.261 12.525-8.102 0-15.884-1.363-23.136-3.865z" fill="#26a6fe"/><path d="m425.739 387.811c-1.052-.726-2.426-.726-3.478 0-11.442 7.894-25.308 12.525-40.261 12.525s-28.819-4.631-40.261-12.525c-1.052-.726-2.426-.726-3.478 0-11.442 7.894-25.308 12.525-40.261 12.525s-28.819-4.631-40.261-12.525c-1.052-.726-2.426-.726-3.478 0-11.442 7.894-25.308 12.525-40.261 12.525s-28.819-4.631-40.261-12.525c-1.052-.726-2.426-.726-3.478 0-11.442 7.894-25.308 12.525-40.261 12.525s-28.819-4.631-40.261-12.525c-1.052-.726-2.426-.726-3.478 0-10.324 7.123-22.625 11.576-35.914 12.381 43.671 67.29 119.459 111.808 205.653 111.808s161.982-44.518 205.653-111.809c-13.289-.804-25.59-5.257-35.914-12.38z" fill="#0593fc"/></g></g></svg>