<svg height="503pt" viewBox="-13 0 503 503.376" width="503pt" xmlns="http://www.w3.org/2000/svg"><path d="m396.890625 503.375h-320c-17.671875 0-32-14.324219-32-32v-288l192-164.800781 192 164.800781v288c0 17.675781-14.324219 32-32 32zm0 0" fill="#80deea"/><path d="m396.890625 455.375h-320c-17.671875 0-32-14.324219-32-32v48c0 17.675781 14.328125 32 32 32h320c17.675781 0 32-14.324219 32-32v-48c0 17.675781-14.324219 32-32 32zm0 0" fill="#4dd0e1"/><path d="m236.890625 18.558594-192 164.816406v68.816406l192-164.816406 192 164.816406v-68.816406zm0 0" fill="#4dd0e1"/><path d="m380.890625 495.199219-67.917969-67.902344c-37.460937-37.503906-37.4375-98.265625.050782-135.738281 37.488281-37.476563 98.25-37.476563 135.738281 0 37.488281 37.472656 37.511719 98.234375.050781 135.738281zm0 0" fill="#ff7043"/><path d="m436.890625 359.375c0 30.929688-25.070313 56-56 56-30.925781 0-56-25.070312-56-56 0-30.925781 25.074219-56 56-56 30.929687 0 56 25.074219 56 56zm0 0" fill="#f4511e"/><path d="m364.890625 343.375h32v32h-32zm0 0" fill="#fff"/><path d="m452.746094 227.519531-215.855469-185.328125-215.855469 185.328125-20.847656-24.289062 236.703125-203.230469 236.707031 203.230469zm0 0" fill="#e5e5e5"/><g fill="#fff"><path d="m220.890625 183.375h32v32h-32zm0 0"/><path d="m220.890625 119.375h32v32h-32zm0 0"/></g></svg>