<svg id="Layer_1" enable-background="new 0 0 510 510" height="512" viewBox="0 0 510 510" width="512" xmlns="http://www.w3.org/2000/svg"><g id="XMLID_1713_"><path id="XMLID_825_" d="m193.52 375h-163.52v45l58.5 8.5 80.517-8.225 40.982 74.725 45.001-15v-43.52c0-33.955-27.526-61.48-61.48-61.48z" fill="#fff4f6"/><path id="XMLID_1166_" d="m345 420 67.5 15 67.5-14.913c0-14.125 0-31.006 0-45.087-4.609 0-158.91 0-163.52 0-33.954 0-61.48 27.524-61.48 61.48v43.52l22.5 15 45-30z" fill="#eae6f3"/><path id="XMLID_824_" d="m212.593 92.594c10.865-10.865 25.865-17.594 42.407-17.594l19-33-19-42c-74.438 0-135 60.559-135 135 0 51.438 59.709 129.267 92.56 169.024 17.497 21.175 30.646 35.321 31.468 36.204 3.837 4.116 7.134 7.653 10.972 11.77l15-96.998-15-60c-16.542 0-31.542-6.729-42.407-17.594-23.453-23.453-23.467-61.344 0-84.812z" fill="#fd6c5f"/><path id="XMLID_780_" d="m390 135c0-74.438-60.559-135-135-135v75c33.083 0 60 26.915 60 60 0 33.083-26.915 60-60 60v156.998c10.614-11.386 22.274-23.569 42.439-47.974 32.724-39.603 92.561-117.539 92.561-169.024z" fill="#fd465f"/><g id="XMLID_779_"><g><g id="XMLID_1091_"><path d="m210 480c0-3.35 0-11.314 0-14.913 0-24.81-20.185-45-45-45-4.655 0-160.348 0-165 0v30h165c8.27 0 15 6.728 15 15v44.913h75l12.667-15.667-12.667-14.333c-14.981 0-30.019 0-45 0z" fill="#99baff"/></g><g id="XMLID_1037_"><path d="m330 465c0-4.136 1.682-7.886 4.398-10.602s6.466-4.398 10.602-4.398h165c0-10.492 0-19.508 0-30-4.655 0-160.348 0-165 0-24.811 0-45 20.186-45 45v15c-14.981 0-30.019 0-45 0v30h75v-22.5z" fill="#6599fe"/></g></g></g></g></svg>