<svg height="511pt" viewBox="-59 0 511 511.99988" width="511pt" xmlns="http://www.w3.org/2000/svg"><path d="m386.019531 197.570312c0 66.492188-34.359375 124.960938-86.285156 158.625-7.820313 5.078126-14.351563 11.894532-18.949219 20.003907l-67.847656 119.851562c-.152344.269531-.304688.523438-.480469.78125-7.246093 11.527344-24.375 11.269531-31.195312-.78125l-67.84375-119.851562c-4.585938-8.097657-11.109375-14.917969-18.921875-19.976563-52.671875-34.132812-87.277344-93.777344-86.292969-161.4375 1.550781-107.722656 94.578125-194.382812 204.273437-185.511718 97.148438 7.8125 173.542969 89.132812 173.542969 188.296874zm0 0" fill="#44bfd7"/><path d="m386.019531 197.570312c0 66.492188-34.359375 124.960938-86.285156 158.625-7.820313 5.078126-14.351563 11.894532-18.949219 20.003907l-67.847656 119.851562c-.152344.269531-.304688.523438-.480469.78125-.171875-.257812-.328125-.511719-.480469-.78125l-67.847656-119.851562c-4.585937-8.097657-11.105468-14.917969-18.917968-19.976563-52.671876-34.132812-87.277344-93.777344-86.292969-161.4375 1.402343-97.464844 77.691406-177.730468 173.558593-185.511718 97.148438 7.8125 173.542969 89.132812 173.542969 188.296874zm0 0" fill="#7cd2e3"/><path d="m336.589844 197.34375c0 77.054688-62.476563 139.492188-139.488282 139.492188-77.039062 0-139.492187-62.453126-139.492187-139.492188 0-82.804688 71.878906-147.746094 154.847656-138.640625 69.8125 7.648437 124.132813 66.800781 124.132813 138.640625zm0 0" fill="#c2eaf2"/><path d="m336.589844 197.34375c0 71.847656-54.320313 131.003906-124.132813 138.652344-69.8125-7.648438-124.132812-66.804688-124.132812-138.652344 0-71.839844 54.320312-130.992188 124.132812-138.640625 69.8125 7.648437 124.132813 66.800781 124.132813 138.640625zm0 0" fill="#def4f8"/><path d="m194.675781 296.9375c-57.160156-1.660156-90.082031-65.960938-59.226562-114.121094l52.582031-82.078125c4.238281-6.613281 13.902344-6.613281 18.140625 0l8.671875 13.546875 43.910156 68.53125c31.332032 48.910156-2.988281 115.667969-64.078125 114.121094zm0 0" fill="#f29500"/><path d="m214.84375 294.910156c-47.421875-11.488281-71.878906-68.429687-43.910156-112.09375l43.910156-68.53125 43.910156 68.53125c27.980469 43.675782 3.511719 100.617188-43.910156 112.09375zm0 0" fill="#ffa90b"/><path d="m194.300781.0195312c-106.785156 1.4882808-193.800781 89.1718748-193.800781 196.5820308 0 66.925782 33.578125 128.640626 89.824219 165.089844 6.824219 4.421875 12.5 10.410156 16.40625 17.316406l29.824219 52.679688c2.089843 3.691406 6.773437 4.988281 10.464843 2.902344 3.691407-2.089844 4.988281-6.777344 2.898438-10.464844l-29.820313-52.683594c-5.125-9.046875-12.53125-16.875-21.421875-22.636718-51.9375-33.660157-83.722656-91.367188-82.800781-154.878907 1.410156-97.703125 82.652344-178.570312 181.226562-178.570312 99.9375 0 181.242188 81.308593 181.242188 181.242187 0 61.683594-30.945312 118.574219-82.78125 152.183594-8.917969 5.78125-16.339844 13.617188-21.460938 22.660156l-67.84375 119.855469c-4.03125 7.121094-14.28125 7.125-18.3125 0l-22.894531-40.445313c-2.089843-3.691406-6.777343-4.988281-10.464843-2.898437-3.691407 2.089844-4.992188 6.773437-2.902344 10.464844l22.898437 40.445312c9.910157 17.507813 35.117188 17.519531 45.039063 0l67.84375-119.855469c3.910156-6.902343 9.597656-12.898437 16.449218-17.34375 56.222657-36.449218 89.785157-98.15625 89.785157-165.0625 0-109.289062-89.65625-198.105468-199.398438-196.5820308zm0 0"/><path d="m58.828125 176.15625c-4.507813-.386719-8.472656 2.957031-8.859375 7.460938-7.410156 86.484374 60.941406 160.433593 147.132812 160.433593 81.429688 0 147.675782-66.246093 147.675782-147.675781 0-121.515625-139.09375-190.484375-235.761719-118.539062-25.109375 18.6875-43.347656 44.261718-52.738281 73.957031-1.367188 4.3125 1.023437 8.914062 5.335937 10.277343 4.3125 1.363282 8.917969-1.027343 10.28125-5.339843 17.339844-54.820313 67.65625-91.652344 125.207031-91.652344 72.394532 0 131.296876 58.898437 131.296876 131.296875s-58.898438 131.296875-131.296876 131.296875c-76.449218 0-137.414062-65.546875-130.8125-142.65625.386719-4.503906-2.957031-8.472656-7.460937-8.859375zm0 0"/><path d="m197.101562 103.460938c2.394532 0 .621094-1.671876 27.0625 39.601562 2.289063 3.574219 7.039063 4.609375 10.609376 2.324219 3.570312-2.289063 4.609374-7.039063 2.320312-10.609375l-24.460938-38.175782c-7.261718-11.332031-23.816406-11.316406-31.066406 0l-52.585937 82.074219c-20.761719 32.398438-15.855469 73.191407 8.710937 100.050781 31.785156 34.757813 87.269532 34.496094 118.816406 0 13.824219-15.113281 21.753907-35.503906 21.753907-55.9375 0-27.203124-11.953125-42.410156-24.597657-62.152343-2.289062-3.570313-7.039062-4.609375-10.609374-2.320313-3.570313 2.285156-4.609376 7.035156-2.324219 10.605469l11.558593 18.039063c27.902344 43.550781-2.28125 103.882812-57.390624 102.296874-51.933594-1.503906-80.289063-59.6875-52.988282-102.296874 56.6875-88.476563 52.742188-83.5 55.191406-83.5zm0 0"/></svg>