<svg id="Layer_1" enable-background="new 0 0 464.055 464.055" height="512" viewBox="0 0 464.055 464.055" width="512" xmlns="http://www.w3.org/2000/svg"><path d="m232.027.03c-117.08 0-212 94.92-212 212 0 102.3 72.45 187.66 168.84 207.6l30.65 38.41c6.41 8.02 18.61 8.02 25.02 0l30.65-38.41c96.39-19.94 168.84-105.3 168.84-207.6 0-117.08-94.92-212-212-212z" fill="#ff6d7a"/><path d="m40.027 226.031c0 26.54 4.877 51.94 13.782 75.352 2.875 7.559-8.031 12.323-11.639 5.085-14.583-29.26-22.601-62.369-22.123-97.396 1.716-125.84 111.051-221.807 236.031-207.693 8.037.908 7.276 12.796-.812 12.675-118.183-1.77-215.24 93.73-215.239 211.977z" fill="#ff8c95"/><circle cx="232.027" cy="212.03" fill="#cbe3fa" r="171"/><path d="m91.035 230.393c-.248 26.497 5.533 51.621 16.054 74.083 4.029 8.603-7.918 15.632-13.501 7.947-20.48-28.192-32.56-62.883-32.561-100.392-.001-110.117 103.078-191.996 210.761-166.355 9.262 2.206 7.35 15.935-2.162 15.52-96.759-4.228-177.679 71.793-178.591 169.197z" fill="#eef7ff"/><path d="m277.477 152.03h-7.02c9.7 0 17.57-7.87 17.57-17.57v-8.86c0-9.7-7.87-17.57-17.57-17.57h-76.86c-9.7 0-17.57 7.87-17.57 17.57v8.86c0 9.7 7.87 17.57 17.57 17.57h-7.02c-9.69 0-17.55 7.86-17.55 17.55v120.9c0 9.69 7.86 17.55 17.55 17.55h90.9c9.69 0 17.55-7.86 17.55-17.55v-120.9c0-9.69-7.86-17.55-17.55-17.55z" fill="#eef7ff"/><path d="m277.766 169.03h-64.193c-9.693 0-17.545 7.857-17.545 17.55 0 4.115-3.335 7.45-7.45 7.45h-19.55v-24.45c0-9.692 7.857-17.55 17.55-17.55 0 0 91.576.01 91.911.029 10.844.616 10.139 16.971-.723 16.971z" fill="#fff"/><path d="m188.026 308.03h-1.449c-9.693 0-17.55-7.857-17.55-17.55v-24.45h19.55c4.115 0 7.45 3.339 7.45 7.454v26.555c0 4.417-3.582 7.991-8.001 7.991z" fill="#fff"/><path d="m169.027 194.03h126v72h-126z" fill="#befa91"/><path d="m196.027 201.48v57.1c0 4.115-3.335 7.45-7.45 7.45h-19.55v-72h19.55c4.115 0 7.45 3.335 7.45 7.45z" fill="#daffbf"/><path d="m288.027 125.6v8.86c0 9.7-7.87 17.57-17.57 17.57h-76.86c-9.7 0-17.57-7.87-17.57-17.57v-8.86c0-9.7 7.87-17.57 17.57-17.57h76.86c9.7 0 17.57 7.87 17.57 17.57z" fill="#befa91"/><path d="m271.42 108.056c7.667.415 7.193 11.974-.485 11.974h-55.337c-9.7 0-17.692 7.871-17.57 17.57.057 4.518-.105 7.304.029 9.752.14 2.547-1.909 4.678-4.459 4.678-9.704 0-17.57-7.866-17.57-17.57v-8.86c0-9.704 7.866-17.57 17.57-17.57-.001 0 77.503.009 77.822.026z" fill="#daffbf"/></svg>