<svg id="Capa_1" enable-background="new 0 0 512 512" height="512" viewBox="0 0 512 512" width="512" xmlns="http://www.w3.org/2000/svg"><g><path d="m66.833 189.807c0 34.835 9.632 73.145 28.628 113.866 14.893 31.926 35.586 65.495 61.504 99.775 43.874 58.029 87.124 97.688 88.943 99.348l10.092 9.204 25-290.252-25-221.748c-104.307 0-189.167 85.147-189.167 189.807z" fill="#ff415b"/><path d="m256 0v512l10.09-9.204c1.82-1.66 45.07-41.319 88.944-99.348 25.918-34.281 46.611-67.85 61.505-99.775 18.996-40.72 28.628-79.03 28.628-113.866 0-104.66-84.861-189.807-189.167-189.807z" fill="#e50058"/><path d="m149.648 131.513 17.822 66.673 70.082 21.946h18.496l10.759-49.831-10.759-38.788z" fill="#ffe370"/><path d="m368.923 119.053-19.638-26.304-38.476-1.168-20.136 39.932h-34.625v88.619h64.244z" fill="#ffb54c"/><path d="m116.646 191.256h125.462v59.744h-125.462z" fill="#515165"/><path d="m368.923 119.053 57.489-119.053h-69.502l-46.101 91.581z" fill="#006eff"/></g></svg>