<svg height="512" viewBox="0 0 64 64" width="512" xmlns="http://www.w3.org/2000/svg"><g id="Layer_28" data-name="Layer 28"><path d="m57 27a25 25 0 1 0 -28.576 24.741l3.576 6.259 3.576-6.259a25 25 0 0 0 21.424-24.741z" fill="#d24034"/><circle cx="32" cy="27" fill="#ccc" r="19"/><path d="m32 8a18.98 18.98 0 0 0 -15.473 30h24.473a4 4 0 0 0 4-4v-20.83a18.915 18.915 0 0 0 -13-5.17z" fill="#f2f2f2"/><path d="m20 18h24v18h-24z" fill="#999"/><path d="m20 18h24v6h-24z" fill="#f3a845"/><path d="m20 18v4h19a3 3 0 0 0 3-3v-1z" fill="#eecc61"/><path d="m21 61h22v2h-22z"/><path d="m32 1a26 26 0 0 0 -4.2 51.656l3.337 5.84a1 1 0 0 0 1.736 0l3.337-5.84a26 26 0 0 0 -4.21-51.656zm3.435 49.751a1 1 0 0 0 -.727.494l-2.708 4.739-2.708-4.739a1 1 0 0 0 -.727-.494 24 24 0 1 1 6.87 0z"/><path d="m32 7a20 20 0 1 0 20 20 20.023 20.023 0 0 0 -20-20zm0 38a18 18 0 1 1 18-18 18.021 18.021 0 0 1 -18 18z"/><path d="m44 17h-5v-2h-2v2h-2v-2h-2v2h-2v-2h-2v2h-2v-2h-2v2h-5a1 1 0 0 0 -1 1v18a1 1 0 0 0 1 1h24a1 1 0 0 0 1-1v-18a1 1 0 0 0 -1-1zm-19 2v2h2v-2h2v2h2v-2h2v2h2v-2h2v2h2v-2h4v4h-22v-4zm12 6v2h-4v-2zm-6 2h-4v-2h4zm-6 0h-4v-2h4zm0 2v2h-4v-2zm2 0h4v2h-4zm4 4v2h-4v-2zm2 0h4v2h-4zm0-2v-2h4v2zm6-2h4v2h-4zm0-2v-2h4v2zm-18 6h4v2h-4zm18 2v-2h4v2z"/></g></svg>