<svg id="svg" version="1.1" xmlns="http://www.w3.org/2000/svg" xmlns:xlink="http://www.w3.org/1999/xlink" width="400" height="400" viewBox="0, 0, 400,400"><g id="svgg"><path id="path0" d="M190.783 75.200 C 188.913 77.454,189.218 81.780,193.746 117.188 C 198.727 156.142,198.790 156.555,199.453 154.688 C 201.724 148.288,209.118 78.220,207.785 75.730 C 206.791 73.873,192.260 73.420,190.783 75.200 M232.760 98.242 C 231.350 100.520,210.293 151.148,210.616 151.486 C 210.984 151.872,210.829 152.067,230.292 126.592 C 248.689 102.511,248.638 102.637,241.406 99.085 C 236.347 96.599,233.924 96.363,232.760 98.242 M156.997 103.325 C 149.934 107.540,149.527 106.428,166.123 128.263 C 183.453 151.064,187.632 156.378,187.969 156.042 C 188.663 155.348,166.301 103.433,164.754 102.148 C 162.525 100.297,161.916 100.389,156.997 103.325 M264.340 115.656 C 258.959 116.721,253.769 119.882,248.811 125.114 C 241.440 132.891,197.656 184.108,197.656 184.953 C 197.656 185.370,200.297 191.236,203.526 197.991 L 209.395 210.271 211.924 208.710 C 223.353 201.656,236.849 208.951,236.849 222.183 C 236.849 229.569,232.193 234.884,223.142 237.831 C 221.919 238.230,221.761 238.794,222.194 241.225 C 222.480 242.828,222.926 248.039,223.186 252.805 L 223.657 261.469 286.486 278.195 L 349.314 294.922 348.967 296.875 C 348.776 297.949,347.790 301.910,346.774 305.677 C 344.022 315.887,344.059 315.927,359.790 320.128 C 376.343 324.549,377.378 324.696,379.489 322.923 C 382.253 320.604,400.000 252.699,400.000 244.443 C 400.000 235.532,385.290 158.004,382.587 152.670 C 380.482 148.516,374.452 142.375,370.442 140.301 C 366.639 138.335,274.250 114.833,270.703 114.930 C 268.984 114.977,266.121 115.303,264.340 115.656 M312.891 149.331 C 361.689 162.583,361.149 162.372,364.250 169.383 C 365.605 172.446,376.093 225.421,375.580 226.612 C 375.358 227.129,226.566 187.295,226.567 186.719 C 226.568 185.501,263.846 143.413,266.289 141.871 C 272.121 138.189,271.495 138.089,312.891 149.331 M53.516 150.035 C 49.375 151.265,42.712 155.768,40.266 158.987 C 37.204 163.019,2.521 235.521,1.098 240.866 C -0.612 247.291,-0.495 322.831,1.228 324.554 C 2.955 326.281,33.246 326.387,35.593 324.674 C 36.928 323.699,37.140 322.392,37.368 313.736 L 37.627 303.906 108.267 303.906 L 178.906 303.906 178.906 313.551 C 178.906 326.612,177.642 325.781,197.522 325.781 C 212.350 325.781,213.376 325.687,214.877 324.185 C 217.199 321.863,216.947 245.920,214.595 239.453 C 213.814 237.305,205.205 218.848,195.464 198.438 C 176.054 157.769,175.292 156.550,166.313 151.823 L 162.109 149.609 108.984 149.474 C 79.691 149.399,54.808 149.651,53.516 150.035 M152.494 172.685 C 157.800 174.159,160.568 178.521,173.022 205.039 C 179.396 218.609,184.439 229.884,184.228 230.094 C 184.018 230.305,149.373 230.387,107.239 230.277 L 30.632 230.078 43.027 204.372 C 56.053 177.358,57.093 175.667,62.109 173.352 C 65.757 171.668,146.684 171.071,152.494 172.685 M366.701 244.712 C 374.027 246.907,379.697 255.508,378.497 262.607 C 376.033 277.192,357.638 281.364,349.414 269.203 C 341.081 256.880,352.643 240.500,366.701 244.712 M43.237 252.488 C 57.340 262.126,49.652 283.473,32.666 281.841 C 17.398 280.374,13.517 259.648,27.027 251.727 C 31.344 249.196,38.943 249.553,43.237 252.488 M187.330 251.213 C 196.352 254.982,199.843 264.158,195.508 272.707 C 187.619 288.264,165.225 283.006,165.346 265.625 C 165.427 254.168,176.705 246.775,187.330 251.213 " stroke="none" fill="#000000" fill-rule="evenodd"></path></g></svg>