<svg id="svg" xmlns="http://www.w3.org/2000/svg" xmlns:xlink="http://www.w3.org/1999/xlink" width="400" height="400" viewBox="0, 0, 400,400"><g id="svgg"><path id="path0" d="M64.444 1.163 C 52.442 4.301,40.705 13.698,35.366 24.444 C 29.968 35.307,30.370 21.079,30.370 201.267 L 30.370 363.704 20.711 363.704 C 3.717 363.704,0.000 367.488,0.000 384.791 L 0.000 394.074 144.074 394.074 L 288.148 394.074 288.148 384.960 C 288.148 368.115,284.438 364.219,268.030 363.833 L 257.778 363.592 257.778 295.870 L 257.778 228.148 262.407 228.161 C 284.639 228.225,287.390 231.204,287.418 255.246 C 287.505 330.827,303.654 363.629,340.807 363.693 C 368.850 363.741,385.490 344.141,391.422 304.074 C 394.690 282.002,395.628 152.399,392.591 142.593 C 387.519 126.214,376.716 113.193,323.924 59.826 C 294.753 30.337,294.417 30.061,287.778 30.065 C 276.747 30.071,269.669 39.417,272.745 49.914 C 273.485 52.440,277.488 56.869,296.079 75.733 L 318.519 98.504 318.519 122.919 C 318.519 153.953,319.049 156.585,327.571 167.858 C 331.610 173.200,332.262 173.877,351.671 192.912 L 363.704 204.713 363.687 232.171 C 363.640 312.917,357.923 335.632,338.330 332.937 C 325.280 331.142,319.910 312.281,318.510 263.333 C 317.700 235.016,316.063 226.311,309.704 216.524 C 301.119 203.310,289.768 197.921,269.074 197.233 L 257.778 196.857 257.778 118.547 C 257.778 42.986,257.726 40.036,256.314 34.516 C 252.042 17.810,238.120 4.287,221.630 0.824 C 215.160 -0.534,69.738 -0.221,64.444 1.163 M216.371 31.213 C 220.179 32.488,223.531 35.292,225.377 38.747 L 227.037 41.852 227.037 90.370 C 227.037 144.475,227.227 142.373,221.881 147.302 C 217.441 151.394,221.818 151.193,142.101 150.955 L 70.498 150.741 67.352 148.519 C 60.797 143.888,61.139 146.895,60.904 91.852 C 60.659 34.701,60.592 35.109,70.833 31.459 C 74.659 30.095,212.337 29.863,216.371 31.213 " stroke="none" fill="#000000" fill-rule="evenodd"></path></g></svg>